<mxfile host="app.diagrams.net" modified="2021-10-24T08:00:35.642Z" agent="5.0 (Windows NT 10.0; Win64; x64) AppleWebKit/537.36 (KHTML, like Gecko) Chrome/94.0.4606.81 Safari/537.36" etag="ZKbV5lpHHaG7ret1ljiB" version="15.3.6" type="github">
  <diagram id="Z0dqNzxHzJdANFM7R98v" name="Page-1">
    <mxGraphModel dx="807" dy="557" grid="1" gridSize="10" guides="1" tooltips="1" connect="1" arrows="1" fold="1" page="1" pageScale="1" pageWidth="827" pageHeight="1169" math="0" shadow="0">
      <root>
        <mxCell id="0" />
        <mxCell id="1" parent="0" />
        <mxCell id="jMgBxGln2_1xjkJZu6p0-4" style="edgeStyle=none;curved=1;rounded=0;orthogonalLoop=1;jettySize=auto;html=1;endArrow=open;startSize=14;endSize=14;sourcePerimeterSpacing=8;targetPerimeterSpacing=8;" edge="1" parent="1" source="jMgBxGln2_1xjkJZu6p0-1" target="jMgBxGln2_1xjkJZu6p0-2">
          <mxGeometry relative="1" as="geometry">
            <Array as="points">
              <mxPoint x="210" y="160" />
            </Array>
          </mxGeometry>
        </mxCell>
        <mxCell id="jMgBxGln2_1xjkJZu6p0-1" value="前端" style="shape=umlLifeline;perimeter=lifelinePerimeter;whiteSpace=wrap;html=1;container=1;collapsible=0;recursiveResize=0;outlineConnect=0;hachureGap=4;pointerEvents=0;" vertex="1" parent="1">
          <mxGeometry x="70" y="80" width="100" height="480" as="geometry" />
        </mxCell>
        <mxCell id="jMgBxGln2_1xjkJZu6p0-15" style="edgeStyle=none;curved=1;rounded=0;orthogonalLoop=1;jettySize=auto;html=1;endArrow=open;startSize=14;endSize=14;sourcePerimeterSpacing=8;targetPerimeterSpacing=8;" edge="1" parent="1" source="jMgBxGln2_1xjkJZu6p0-2" target="jMgBxGln2_1xjkJZu6p0-1">
          <mxGeometry relative="1" as="geometry">
            <Array as="points">
              <mxPoint x="210" y="520" />
            </Array>
          </mxGeometry>
        </mxCell>
        <mxCell id="jMgBxGln2_1xjkJZu6p0-2" value="后端业务系统" style="shape=umlLifeline;perimeter=lifelinePerimeter;whiteSpace=wrap;html=1;container=1;collapsible=0;recursiveResize=0;outlineConnect=0;hachureGap=4;pointerEvents=0;" vertex="1" parent="1">
          <mxGeometry x="320" y="80" width="100" height="480" as="geometry" />
        </mxCell>
        <mxCell id="jMgBxGln2_1xjkJZu6p0-6" value="" style="html=1;points=[];perimeter=orthogonalPerimeter;hachureGap=4;pointerEvents=0;" vertex="1" parent="jMgBxGln2_1xjkJZu6p0-2">
          <mxGeometry x="50" y="120" width="10" height="40" as="geometry" />
        </mxCell>
        <mxCell id="jMgBxGln2_1xjkJZu6p0-7" value="2.首页接口全部免登录" style="edgeStyle=orthogonalEdgeStyle;html=1;align=left;spacingLeft=2;endArrow=block;rounded=0;entryX=1;entryY=0;startSize=14;endSize=14;sourcePerimeterSpacing=8;targetPerimeterSpacing=8;" edge="1" target="jMgBxGln2_1xjkJZu6p0-6" parent="jMgBxGln2_1xjkJZu6p0-2">
          <mxGeometry relative="1" as="geometry">
            <mxPoint x="55" y="100" as="sourcePoint" />
            <Array as="points">
              <mxPoint x="85" y="100" />
            </Array>
          </mxGeometry>
        </mxCell>
        <mxCell id="jMgBxGln2_1xjkJZu6p0-10" value="" style="html=1;points=[];perimeter=orthogonalPerimeter;hachureGap=4;pointerEvents=0;" vertex="1" parent="jMgBxGln2_1xjkJZu6p0-2">
          <mxGeometry x="50" y="250" width="10" height="40" as="geometry" />
        </mxCell>
        <mxCell id="jMgBxGln2_1xjkJZu6p0-11" value="4.接收到前端登录请求&lt;br&gt;走之前的登录逻辑" style="edgeStyle=orthogonalEdgeStyle;html=1;align=left;spacingLeft=2;endArrow=block;rounded=0;entryX=1;entryY=0;startSize=14;endSize=14;sourcePerimeterSpacing=8;targetPerimeterSpacing=8;" edge="1" target="jMgBxGln2_1xjkJZu6p0-10" parent="jMgBxGln2_1xjkJZu6p0-2">
          <mxGeometry relative="1" as="geometry">
            <mxPoint x="55" y="230" as="sourcePoint" />
            <Array as="points">
              <mxPoint x="85" y="230" />
            </Array>
          </mxGeometry>
        </mxCell>
        <mxCell id="jMgBxGln2_1xjkJZu6p0-16" style="edgeStyle=none;curved=1;rounded=0;orthogonalLoop=1;jettySize=auto;html=1;endArrow=open;startSize=14;endSize=14;sourcePerimeterSpacing=8;targetPerimeterSpacing=8;" edge="1" parent="1" source="jMgBxGln2_1xjkJZu6p0-3" target="jMgBxGln2_1xjkJZu6p0-2">
          <mxGeometry relative="1" as="geometry">
            <Array as="points">
              <mxPoint x="540" y="480" />
            </Array>
          </mxGeometry>
        </mxCell>
        <mxCell id="jMgBxGln2_1xjkJZu6p0-3" value="认证中心" style="shape=umlLifeline;perimeter=lifelinePerimeter;whiteSpace=wrap;html=1;container=1;collapsible=0;recursiveResize=0;outlineConnect=0;hachureGap=4;pointerEvents=0;" vertex="1" parent="1">
          <mxGeometry x="580" y="80" width="100" height="480" as="geometry" />
        </mxCell>
        <mxCell id="jMgBxGln2_1xjkJZu6p0-5" value="1.前端授权获取用户信息，&lt;br&gt;直接跳转到首页" style="text;html=1;align=center;verticalAlign=middle;resizable=0;points=[];autosize=1;strokeColor=none;fillColor=none;" vertex="1" parent="1">
          <mxGeometry x="160" y="130" width="160" height="30" as="geometry" />
        </mxCell>
        <mxCell id="jMgBxGln2_1xjkJZu6p0-8" style="edgeStyle=none;curved=1;rounded=0;orthogonalLoop=1;jettySize=auto;html=1;endArrow=open;startSize=14;endSize=14;sourcePerimeterSpacing=8;targetPerimeterSpacing=8;" edge="1" parent="1">
          <mxGeometry relative="1" as="geometry">
            <mxPoint x="120" y="300" as="sourcePoint" />
            <mxPoint x="370" y="300" as="targetPoint" />
            <Array as="points">
              <mxPoint x="210.5" y="300" />
            </Array>
          </mxGeometry>
        </mxCell>
        <mxCell id="jMgBxGln2_1xjkJZu6p0-9" value="3.做业务流程，&lt;br&gt;没有绑定手机号码强制绑定" style="text;html=1;align=center;verticalAlign=middle;resizable=0;points=[];autosize=1;strokeColor=none;fillColor=none;" vertex="1" parent="1">
          <mxGeometry x="160" y="270" width="160" height="30" as="geometry" />
        </mxCell>
        <mxCell id="jMgBxGln2_1xjkJZu6p0-12" style="edgeStyle=none;curved=1;rounded=0;orthogonalLoop=1;jettySize=auto;html=1;endArrow=open;startSize=14;endSize=14;sourcePerimeterSpacing=8;targetPerimeterSpacing=8;" edge="1" parent="1" source="jMgBxGln2_1xjkJZu6p0-2">
          <mxGeometry relative="1" as="geometry">
            <mxPoint x="380" y="440" as="sourcePoint" />
            <mxPoint x="630" y="440" as="targetPoint" />
            <Array as="points">
              <mxPoint x="470.5" y="440" />
            </Array>
          </mxGeometry>
        </mxCell>
        <mxCell id="jMgBxGln2_1xjkJZu6p0-13" value="5.调用认证中心获取token" style="text;html=1;align=center;verticalAlign=middle;resizable=0;points=[];autosize=1;strokeColor=none;fillColor=none;" vertex="1" parent="1">
          <mxGeometry x="380" y="410" width="150" height="20" as="geometry" />
        </mxCell>
        <mxCell id="jMgBxGln2_1xjkJZu6p0-17" value="6.返回token" style="text;html=1;align=center;verticalAlign=middle;resizable=0;points=[];autosize=1;strokeColor=none;fillColor=none;" vertex="1" parent="1">
          <mxGeometry x="440" y="460" width="80" height="20" as="geometry" />
        </mxCell>
        <mxCell id="jMgBxGln2_1xjkJZu6p0-19" value="7.返回token" style="text;html=1;align=center;verticalAlign=middle;resizable=0;points=[];autosize=1;strokeColor=none;fillColor=none;" vertex="1" parent="1">
          <mxGeometry x="170" y="490" width="80" height="20" as="geometry" />
        </mxCell>
      </root>
    </mxGraphModel>
  </diagram>
</mxfile>
